<!DOCTYPE svg PUBLIC "-//W3C//DTD SVG 20010904//EN" "http://www.w3.org/TR/2001/REC-SVG-20010904/DTD/svg10.dtd">
<svg version="1.0" xmlns="http://www.w3.org/2000/svg" width="158px" height="82px" viewBox="0 0 1580 820" preserveAspectRatio="xMidYMid meet">
<g id="layer101" fill="#713af5" stroke="none">
 <path d="M437 696 c-50 -18 -72 -39 -97 -90 -73 -152 59 -327 207 -274 l43 16 0 -94 0 -94 55 0 55 0 0 270 0 270 -50 0 c-39 0 -50 -3 -50 -16 0 -15 -2 -15 -24 0 -36 23 -95 28 -139 12z m128 -111 c20 -19 25 -35 25 -71 0 -62 -28 -94 -80 -94 -53 0 -82 34 -82 95 0 35 6 53 23 71 31 33 82 32 114 -1z"/>
 <path d="M868 700 c-75 -22 -128 -99 -128 -183 0 -116 77 -197 187 -197 98 0 173 78 173 177 l0 43 -129 0 c-123 0 -129 1 -124 19 8 30 36 51 77 58 30 5 40 1 63 -24 26 -27 31 -28 65 -19 50 15 51 18 25 57 -41 62 -132 92 -209 69z m132 -240 c0 -5 -9 -19 -20 -30 -37 -37 -130 -18 -130 27 0 10 19 13 75 13 43 0 75 -4 75 -10z"/>
 <path d="M160 435 l0 -265 55 0 55 0 0 265 0 265 -55 0 -55 0 0 -265z"/>
 <path d="M1100 692 c0 -5 27 -47 60 -93 33 -46 60 -87 60 -90 0 -3 -27 -42 -60 -87 -33 -45 -60 -84 -60 -87 0 -3 26 -5 59 -5 l58 0 34 49 34 48 34 -48 33 -49 60 0 c45 0 57 3 52 13 -5 6 -32 45 -61 86 -29 41 -53 78 -53 83 0 5 25 43 56 84 77 105 77 104 11 104 -55 0 -56 0 -92 -50 -20 -27 -38 -50 -40 -50 -2 0 -20 23 -40 50 -36 49 -37 50 -91 50 -30 0 -54 -4 -54 -8z"/>
 </g>
<g id="layer102" fill="#936df8" stroke="none">
 <path d="M437 696 c-50 -18 -72 -39 -97 -90 -73 -152 59 -327 207 -274 l43 16 0 -94 0 -94 55 0 55 0 0 270 0 270 -50 0 c-39 0 -50 -3 -50 -16 0 -15 -2 -15 -24 0 -36 23 -95 28 -139 12z m128 -111 c20 -19 25 -35 25 -71 0 -62 -28 -94 -80 -94 -53 0 -82 34 -82 95 0 35 6 53 23 71 31 33 82 32 114 -1z"/>
 <path d="M868 700 c-75 -22 -128 -99 -128 -183 0 -116 77 -197 187 -197 98 0 173 78 173 177 l0 43 -129 0 c-123 0 -129 1 -124 19 8 30 36 51 77 58 30 5 40 1 63 -24 26 -27 31 -28 65 -19 50 15 51 18 25 57 -41 62 -132 92 -209 69z m132 -240 c0 -5 -9 -19 -20 -30 -37 -37 -130 -18 -130 27 0 10 19 13 75 13 43 0 75 -4 75 -10z"/>
 <path d="M160 435 l0 -265 55 0 55 0 0 265 0 265 -55 0 -55 0 0 -265z"/>
 <path d="M1324 649 l-38 -51 -29 33 -29 34 26 -37 c14 -21 37 -53 51 -71 31 -42 31 -50 0 -91 l-25 -32 37 -52 36 -52 59 0 c45 0 57 3 52 13 -5 6 -32 45 -61 86 -29 41 -53 78 -53 83 0 5 25 43 56 84 77 105 77 104 11 104 -55 0 -56 0 -93 -51z"/>
 <path d="M1239 375 c-22 -33 -28 -35 -78 -35 -49 0 -52 1 -40 18 13 15 12 16 -3 3 -30 -23 -20 -31 40 -31 60 0 69 6 106 68 16 27 -3 10 -25 -23z"/>
 </g>
<g id="layer103" fill="#6abcfd" stroke="none">
 <path d="M437 696 c-50 -18 -72 -39 -97 -90 -73 -152 59 -327 207 -274 l43 16 0 -94 0 -94 55 0 55 0 0 270 0 270 -50 0 c-39 0 -50 -3 -50 -16 0 -15 -2 -15 -24 0 -36 23 -95 28 -139 12z m128 -111 c20 -19 25 -35 25 -71 0 -62 -28 -94 -80 -94 -53 0 -82 34 -82 95 0 35 6 53 23 71 31 33 82 32 114 -1z"/>
 <path d="M868 700 c-75 -22 -128 -99 -128 -183 0 -116 77 -197 187 -197 98 0 173 78 173 177 l0 43 -129 0 c-123 0 -129 1 -124 19 8 30 36 51 77 58 30 5 40 1 63 -24 26 -27 31 -28 65 -19 50 15 51 18 25 57 -41 62 -132 92 -209 69z m132 -240 c0 -5 -9 -19 -20 -30 -37 -37 -130 -18 -130 27 0 10 19 13 75 13 43 0 75 -4 75 -10z"/>
 <path d="M160 435 l0 -265 55 0 55 0 0 265 0 265 -55 0 -55 0 0 -265z"/>
 <path d="M1325 650 c-32 -44 -39 -49 -53 -38 -9 7 4 -13 27 -44 l43 -58 -26 -34 c-14 -19 -26 -40 -26 -46 0 -7 14 -32 32 -56 31 -43 32 -44 90 -44 45 0 57 3 52 13 -5 6 -32 45 -61 86 -29 41 -53 78 -53 83 0 5 25 43 56 84 77 105 77 104 11 104 -55 0 -56 0 -92 -50z"/>
 </g>
<g id="layer104" fill="#ae99f9" stroke="none">
 <path d="M160 435 l0 -265 58 2 57 2 -52 3 -53 4 0 254 0 254 53 4 52 3 -57 2 -58 2 0 -265z"/>
 </g>
<g id="layer105" fill="#a9d8fe" stroke="none">
 <path d="M160 435 l0 -265 58 2 57 2 -52 3 -53 4 0 254 0 254 53 4 52 3 -57 2 -58 2 0 -265z"/>
 </g>

</svg>